<svg width="36" height="36" viewBox="0 0 36 36" fill="none" xmlns="http://www.w3.org/2000/svg">
<rect width="36" height="36" rx="5" fill="#FFFF0D"/>
<path d="M31.968 32.352C31.136 32.352 30.496 32.1173 30.048 31.648C29.6 31.1787 29.376 30.5067 29.376 29.632C29.376 28.8427 29.6107 28.2027 30.08 27.712C30.5707 27.2 31.2 26.944 31.968 26.944C32.7787 26.944 33.408 27.1787 33.856 27.648C34.304 28.1173 34.528 28.7787 34.528 29.632C34.528 30.4427 34.2933 31.104 33.824 31.616C33.3547 32.1067 32.736 32.352 31.968 32.352Z" fill="black"/>
<path d="M2.24 32V15.072H6.624L6.72 18.304L6.048 18.432C6.28267 17.8773 6.592 17.376 6.976 16.928C7.36 16.48 7.808 16.096 8.32 15.776C8.85333 15.456 9.408 15.2107 9.984 15.04C10.56 14.848 11.136 14.752 11.712 14.752C12.5867 14.752 13.376 14.8907 14.08 15.168C14.784 15.4453 15.3813 15.8827 15.872 16.48C16.3627 17.056 16.7467 17.824 17.024 18.784L16.32 18.72L16.544 18.208C16.8213 17.696 17.1733 17.2373 17.6 16.832C18.0267 16.4053 18.5067 16.0427 19.04 15.744C19.5733 15.424 20.128 15.1787 20.704 15.008C21.28 14.8373 21.8453 14.752 22.4 14.752C23.7227 14.752 24.8213 15.0187 25.696 15.552C26.5707 16.064 27.2213 16.8427 27.648 17.888C28.096 18.9333 28.32 20.2133 28.32 21.728V32H23.776V22.048C23.776 21.28 23.6693 20.6507 23.456 20.16C23.2427 19.6693 22.9333 19.3067 22.528 19.072C22.1227 18.816 21.6 18.688 20.96 18.688C20.4693 18.688 20.0107 18.7733 19.584 18.944C19.1787 19.0933 18.816 19.3173 18.496 19.616C18.1973 19.8933 17.9627 20.224 17.792 20.608C17.6213 20.992 17.536 21.4187 17.536 21.888V32H12.992V22.016C12.992 21.312 12.8747 20.7147 12.64 20.224C12.4267 19.712 12.1173 19.328 11.712 19.072C11.3067 18.816 10.8053 18.688 10.208 18.688C9.71733 18.688 9.25867 18.7733 8.832 18.944C8.42667 19.0933 8.07467 19.3173 7.776 19.616C7.47733 19.8933 7.232 20.224 7.04 20.608C6.86933 20.992 6.784 21.408 6.784 21.856V32H2.24Z" fill="black"/>
</svg>